<?xml version="1.0" standalone="no"?>
<!DOCTYPE svg PUBLIC "-//W3C//DTD SVG 20010904//EN"
 "http://www.w3.org/TR/2001/REC-SVG-20010904/DTD/svg10.dtd">
<svg version="1.0" xmlns="http://www.w3.org/2000/svg"
 width="2172.000000pt" height="714.000000pt" viewBox="0 0 2172.000000 714.000000"
 preserveAspectRatio="xMidYMid meet">

<g transform="translate(0.000000,714.000000) scale(0.100000,-0.100000)"
fill="#000000" stroke="none">
<path d="M6390 5535 l0 -315 1208 0 c1077 0 1214 -2 1263 -16 192 -57 360
-221 419 -412 42 -134 34 -302 -21 -429 -71 -166 -216 -298 -386 -351 -69 -22
-70 -22 -968 -20 l-900 3 -3 443 -2 442 -305 0 -305 0 0 -1696 0 -1695 1393 4
c1374 4 1393 4 1486 25 411 92 741 370 894 753 67 166 82 250 82 469 0 180 -3
203 -27 295 -81 302 -250 549 -493 720 -39 27 -72 50 -74 52 -2 1 9 21 25 44
16 23 42 60 57 83 79 115 150 304 182 483 48 278 -21 609 -179 856 -199 310
-542 526 -900 566 -62 7 -506 11 -1271 11 l-1175 0 0 -315z m2823 -2210 c95
-33 166 -78 236 -149 121 -123 182 -269 182 -435 0 -115 -18 -190 -69 -291
-49 -99 -160 -211 -257 -262 -140 -72 -62 -68 -1230 -68 -804 0 -1054 3 -1063
12 -9 9 -12 158 -12 608 0 328 3 600 7 603 3 4 486 7 1072 7 l1066 0 68 -25z"/>
<path d="M630 5407 l0 -437 968 -970 c532 -534 974 -970 982 -970 8 0 301 286
650 635 349 349 638 635 642 635 5 0 8 -632 8 -1405 l0 -1405 310 0 310 0 0
2155 c0 1185 -3 2155 -7 2155 -5 0 -437 -429 -960 -952 l-953 -953 -975 975
-975 975 0 -438z"/>
<path d="M18928 5830 c-417 -40 -830 -207 -1149 -464 -427 -344 -693 -795
-792 -1340 -18 -103 -22 -157 -22 -361 0 -204 4 -258 22 -362 110 -608 441
-1115 948 -1454 110 -73 358 -196 480 -237 378 -128 758 -153 1144 -76 703
140 1296 628 1575 1296 294 705 192 1519 -267 2135 -99 132 -299 334 -427 430
-285 215 -612 354 -970 413 -142 23 -408 33 -542 20z m407 -625 c331 -47 618
-185 854 -410 245 -235 391 -492 462 -817 26 -121 36 -371 20 -501 -74 -588
-477 -1085 -1038 -1280 -186 -65 -284 -81 -503 -81 -164 0 -211 4 -297 22
-644 139 -1109 613 -1234 1257 -29 154 -29 386 0 540 121 622 581 1107 1181
1244 185 42 379 52 555 26z"/>
<path d="M12627 5788 c-74 -130 -377 -679 -377 -683 0 -3 42 -80 94 -172 141
-252 219 -394 428 -773 75 -135 300 -542 500 -905 201 -363 499 -903 663
-1200 164 -297 302 -546 308 -552 7 -10 102 -13 413 -13 222 0 404 3 404 7 0
6 -83 160 -153 283 -11 19 -220 397 -465 840 -244 443 -575 1041 -735 1330
-159 289 -311 563 -337 610 -25 47 -148 267 -271 490 -124 223 -272 489 -329
593 -57 103 -107 187 -111 187 -5 0 -19 -19 -32 -42z"/>
<path d="M5160 3665 l0 -2155 285 0 285 0 0 2155 0 2155 -285 0 -285 0 0
-2155z"/>
<path d="M15722 5628 l3 -193 288 -3 287 -2 0 195 0 195 -290 0 -290 0 2 -192z"/>
<path d="M15725 4968 c-3 -7 -4 -787 -3 -1733 l3 -1720 285 0 285 0 0 1730 0
1730 -283 3 c-221 2 -284 0 -287 -10z"/>
<path d="M11977 4613 c-30 -54 -241 -435 -469 -848 -228 -412 -547 -988 -708
-1280 -161 -291 -307 -555 -323 -585 -16 -30 -38 -68 -47 -85 -23 -38 -50 -87
-96 -172 -20 -37 -47 -87 -61 -110 l-24 -43 410 0 409 0 295 532 c697 1258
1077 1949 1077 1960 0 6 -30 65 -66 132 -37 66 -77 139 -89 161 -150 276 -240
435 -246 435 -4 0 -32 -44 -62 -97z"/>
<path d="M630 2995 l0 -1505 310 0 310 0 0 1203 0 1202 -303 303 c-166 166
-305 302 -310 302 -4 0 -7 -677 -7 -1505z"/>
</g>
</svg>
