<svg width="21" height="21" viewBox="0 0 21 21" fill="none" xmlns="http://www.w3.org/2000/svg">
<path d="M10.8255 20.8798C16.3521 20.8798 20.9147 16.3171 20.9147 10.7905C20.9147 5.2737 16.344 0.703003 10.8175 0.703003C5.30073 0.703003 0.738037 5.2737 0.738037 10.7905C0.738037 16.3171 5.30874 20.8798 10.8255 20.8798Z" fill="#4A80F0"/>
<path d="M6.44055 11.468C6.44055 11.3305 6.50266 11.177 6.6136 11.0545L12.0802 4.244C12.5335 3.69654 13.269 4.07622 13.0108 4.75767L11.2286 9.50435H14.5675C14.8487 9.50435 15.0616 9.70748 15.0616 9.97896C15.0616 10.1165 14.9995 10.27 14.8903 10.4004L9.422 17.2029C8.97043 17.7504 8.23313 17.3707 8.49133 16.6893L10.2753 11.9426H6.93645C6.65344 11.9426 6.44055 11.7395 6.44055 11.468Z" fill="white"/>
</svg>
