<svg width="20" height="21" viewBox="0 0 20 21" fill="none" xmlns="http://www.w3.org/2000/svg">
<path d="M0.0976562 16.186V19.145C0.0976562 20.3267 0.664062 20.8735 1.86523 20.8735H4.99023C2.85156 19.8286 1.25977 18.2857 0.0976562 16.186ZM19.8242 16.186C18.6621 18.2857 17.0703 19.8286 14.9414 20.8735H18.0566C19.2578 20.8735 19.8242 20.3267 19.8242 19.145V16.186ZM9.96094 20.7368C15.4102 20.7368 19.9219 16.2153 19.9219 10.7759C19.9219 5.32666 15.4004 0.814941 9.95117 0.814941C4.51172 0.814941 0 5.32666 0 10.7759C0 16.2153 4.52148 20.7368 9.96094 20.7368Z" fill="#4A80F0"/>
<path d="M6.46484 8.37355C6.18164 8.09034 6.19141 7.66066 6.46484 7.38722C6.74805 7.10402 7.16797 7.10402 7.46094 7.38722L9.95117 9.88722L14.0527 5.78566C14.3359 5.50245 14.7461 5.51222 15.0391 5.78566C15.332 6.05909 15.3223 6.50831 15.0391 6.78175L10.459 11.3716C10.1758 11.6548 9.73633 11.6646 9.45312 11.3716L6.46484 8.37355Z" fill="white"/>
</svg>
