<svg width="21" height="25" viewBox="0 0 21 25" fill="none" xmlns="http://www.w3.org/2000/svg">
<path d="M0 12.7375C0 18.2623 4.5707 22.825 10.0875 22.825C15.6141 22.825 20.1767 18.2623 20.1767 12.7375C20.1767 9.57579 18.5974 6.58614 16.2195 4.80392C15.6984 4.37872 15.0734 4.4633 14.7519 4.91466C14.4146 5.39337 14.5644 5.95782 15.0176 6.35196C16.9482 7.82051 18.1799 10.1188 18.1897 12.7375C18.1977 17.2326 14.5826 20.8379 10.0875 20.8379C5.59237 20.8379 1.9951 17.2326 1.9951 12.7375C1.9951 8.93888 4.56757 5.77891 8.0832 4.90391V6.29337C8.0832 7.0377 8.63554 7.2461 9.23769 6.81426L12.5164 4.48439C13.0033 4.14298 13.0078 3.60216 12.5164 3.2465L9.2457 0.916622C8.63906 0.478538 8.0832 0.679904 8.0832 1.43576V2.85842C3.49707 3.79904 0 7.89767 0 12.7375Z" fill="#28CD41"/>
<path d="M5.37032 9.56285C5.28418 10.0033 5.22559 10.584 5.22559 10.971C5.22559 14.2314 7.1709 16.3907 10.1373 16.3907C12.0832 16.3907 12.9703 15.2421 13.1939 14.87L12.56 14.8525C13.1555 15.4613 13.3883 16.0882 13.6848 17.0089C13.7451 17.206 13.9031 17.3009 14.0602 17.3009C14.3912 17.3009 14.6682 17.0107 14.6682 16.6165C14.6682 16.0083 13.8008 14.9642 13.3408 14.5415C11.415 12.781 8.51524 13.8267 7.78516 11.8972C7.73184 11.755 7.87227 11.6439 8.01895 11.7648C9.60352 13.1251 11.4496 12.0337 13.3074 13.7316C13.476 13.8806 13.6648 13.807 13.7074 13.6331C13.7269 13.5097 13.735 13.3116 13.735 13.1181C13.735 11.0003 12.2697 9.94586 10.1568 9.94586C9.45274 9.94586 8.64571 10.1234 8.00547 10.1234C7.31368 10.1234 6.54903 10.0541 5.91328 9.41559C5.71367 9.20973 5.43067 9.23981 5.37032 9.56285Z" fill="#28CD41"/>
</svg>
