<svg width="37" height="17" viewBox="0 0 37 17" fill="none" xmlns="http://www.w3.org/2000/svg">
<g clip-path="url(#clip0_99_108)">
<path d="M8.18921 8.47119C10.0935 8.47119 11.7536 6.75244 11.7536 4.51611C11.7536 2.31885 10.0837 0.687988 8.18921 0.687988C6.27515 0.687988 4.60523 2.34815 4.61499 4.53565C4.61499 6.75244 6.27515 8.47119 8.18921 8.47119ZM2.28101 16.6939H14.0778C15.0544 16.6939 15.6208 16.2446 15.6208 15.4829C15.6208 13.1978 12.7888 10.0142 8.17945 10.0142C3.57007 10.0142 0.738037 13.1978 0.738037 15.4829C0.738037 16.2446 1.29468 16.6939 2.28101 16.6939ZM28.9216 8.47119C30.8259 8.47119 32.486 6.75244 32.486 4.51611C32.486 2.31885 30.8161 0.687988 28.9216 0.687988C27.0075 0.687988 25.3376 2.34815 25.3474 4.53565C25.3474 6.75244 27.0075 8.47119 28.9216 8.47119ZM23.0134 16.6939H34.8103C35.7868 16.6939 36.3532 16.2446 36.3532 15.4829C36.3532 13.1978 33.5212 10.0142 28.9118 10.0142C24.3025 10.0142 21.4704 13.1978 21.4704 15.4829C21.4704 16.2446 22.0271 16.6939 23.0134 16.6939Z" fill="#4A80F0"/>
<path d="M14.7126 9.24268C15.4353 9.24268 16.0114 8.6665 16.0114 7.94384C16.0114 7.23095 15.4353 6.65479 14.7126 6.65479C13.9997 6.65479 13.4235 7.23095 13.4235 7.94384C13.4235 8.6665 13.9997 9.24268 14.7126 9.24268ZM18.5505 9.24268C19.2634 9.24268 19.8396 8.6665 19.8396 7.94384C19.8396 7.23095 19.2634 6.65479 18.5505 6.65479C17.8278 6.65479 17.2614 7.23095 17.2614 7.94384C17.2614 8.6665 17.8278 9.24268 18.5505 9.24268ZM22.3689 9.24268C23.0915 9.24268 23.6677 8.6665 23.6677 7.94384C23.6677 7.23095 23.0915 6.65479 22.3689 6.65479C21.656 6.65479 21.0798 7.23095 21.0798 7.94384C21.0798 8.6665 21.656 9.24268 22.3689 9.24268Z" fill="#4A80F0"/>
</g>
<defs>
<clipPath id="clip0_99_108">
<rect width="35.6152" height="16.0254" fill="white" transform="translate(0.738037 0.687988)"/>
</clipPath>
</defs>
</svg>
