<svg width="14" height="23" viewBox="0 0 14 23" fill="none" xmlns="http://www.w3.org/2000/svg">
<path d="M0 10.9126C0 14.7407 2.5293 17.4263 6.25 17.7388V20.0142H2.62695C2.2168 20.0142 1.88477 20.3462 1.88477 20.7564C1.88477 21.1665 2.2168 21.4888 2.62695 21.4888H11.3477C11.7578 21.4888 12.0898 21.1665 12.0898 20.7564C12.0898 20.3462 11.7578 20.0142 11.3477 20.0142H7.72461V17.7388C11.4551 17.4263 13.9746 14.7407 13.9746 10.9126V8.93018C13.9746 8.52002 13.6523 8.19776 13.2422 8.19776C12.832 8.19776 12.5 8.52002 12.5 8.93018V10.854C12.5 14.1841 10.332 16.3911 6.99219 16.3911C3.64258 16.3911 1.47461 14.1841 1.47461 10.854V8.93018C1.47461 8.52002 1.15234 8.19776 0.732422 8.19776C0.322266 8.19776 0 8.52002 0 8.93018V10.9126ZM6.99219 14.2915C8.93555 14.2915 10.2441 12.8364 10.2441 10.7564V4.22315C10.2441 2.1333 8.93555 0.687988 6.99219 0.687988C5.03906 0.687988 3.73047 2.1333 3.73047 4.22315V10.7564C3.73047 12.8364 5.03906 14.2915 6.99219 14.2915Z" fill="#4A80F0"/>
</svg>
